<svg width="52" height="57" viewBox="0 0 52 57" fill="none" xmlns="http://www.w3.org/2000/svg">
<path fill-rule="evenodd" clip-rule="evenodd" d="M28.9569 51.8337C41.924 50.3658 52 39.3596 52 26C52 11.6406 40.3594 0 26 0C11.6406 0 0 11.6406 0 26C0 39.2774 9.95247 50.2303 22.8042 51.8055C24.6938 53.5095 25.8713 57 25.8713 57C25.8713 57 26.3761 53.8462 28.9569 51.8337Z" fill="white"/>
<mask id="mask0_1_32" style="mask-type:alpha" maskUnits="userSpaceOnUse" x="9" y="12" width="35" height="28">
<path d="M27.5 13C21.1487 13 16 18.1487 16 24.5C16 30.8513 21.1487 36 27.5 36C33.8513 36 39 30.8513 39 24.5C39 18.1487 33.8513 13 27.5 13ZM27.4999 33.2259C22.6885 33.2259 18.7741 29.3115 18.7741 24.5001C18.7741 19.6886 22.6885 15.7742 27.4999 15.7742C32.3114 15.7742 36.2258 19.6886 36.2258 24.5001C36.2258 29.3115 32.3114 33.2259 27.4999 33.2259Z" fill="black"/>
<path d="M26.5002 19C22.9161 19 20.0002 21.6916 20.0002 25C20.0002 28.3084 22.9161 31 26.5002 31C30.0844 31 33.0002 28.3084 33.0002 25C33.0002 21.6916 30.0844 19 26.5002 19Z" fill="black"/>
<path d="M42.2712 26.3185V12.3148C42.2712 12.1797 42.1847 12.0596 42.056 12.0164C41.9274 11.9733 41.7856 12.0169 41.7035 12.1246C39.9496 14.4287 39.0002 17.2411 39.0002 20.1327V25.2557C39.0002 25.8433 39.4784 26.3196 40.0683 26.3196H40.5135C40.0746 30.8353 39.7846 37.151 39.7846 37.8905C39.7846 39.0556 40.5044 40 41.3924 40C42.2804 40 43.0002 39.0555 43.0002 37.8905C43.0002 37.151 42.7102 30.8343 42.2712 26.3185Z" fill="black"/>
<path d="M13.5522 24.0011C14.42 23.4792 15 22.5328 15 21.4518L14.5702 14.4734C14.5537 14.2074 14.3317 14 14.0633 14C13.773 14 13.5417 14.2415 13.5562 14.5292L13.8357 20.1259C13.8357 20.4406 13.5788 20.6955 13.2621 20.6955C12.9453 20.6955 12.6885 20.4404 12.6885 20.1259L12.5488 14.5315C12.5414 14.2359 12.298 14.0001 12.0001 14.0001C11.7022 14.0001 11.4588 14.2359 11.4513 14.5315L11.3117 20.1259C11.3117 20.4406 11.0548 20.6955 10.7381 20.6955C10.4213 20.6955 10.1645 20.4404 10.1645 20.1259L10.444 14.5292C10.4583 14.2414 10.2269 14 9.93683 14C9.66843 14 9.44639 14.2074 9.43003 14.4734L9 21.4518C9 22.5329 9.57993 23.4792 10.4478 24.0012C11.0125 24.3409 11.3274 24.9759 11.2546 25.6277C10.7647 30.0119 10.432 37.1696 10.432 37.9493C10.432 39.0819 11.134 40 12 40C12.866 40 13.568 39.0818 13.568 37.9493C13.568 37.1696 13.2353 30.0119 12.7454 25.6277C12.6726 24.9763 12.9877 24.3407 13.5522 24.0011Z" fill="black"/>
</mask>
<g mask="url(#mask0_1_32)">
<g style="mix-blend-mode:multiply">
<path fill-rule="evenodd" clip-rule="evenodd" d="M7.11857 3.30648C3.33366 7.09139 3.33366 13.2279 7.11857 17.0129L14.4001 24.2944C18.185 28.0793 24.3215 28.0793 28.1065 24.2944C31.8914 20.5095 31.8914 14.3729 28.1065 10.588L20.8249 3.30648C17.04 -0.478427 10.9035 -0.478428 7.11857 3.30648Z" fill="url(#paint0_linear_1_32)"/>
</g>
<g style="mix-blend-mode:multiply">
<path fill-rule="evenodd" clip-rule="evenodd" d="M29.5 -5.99994C24.2533 -5.99994 20 -1.74664 20 3.50006V13.5001C20 18.7468 24.2533 23.0001 29.5 23.0001C34.7467 23.0001 39 18.7468 39 13.5001V3.50006C39 -1.74664 34.7467 -5.99994 29.5 -5.99994Z" fill="url(#paint1_linear_1_32)"/>
</g>
<g style="mix-blend-mode:multiply">
<path fill-rule="evenodd" clip-rule="evenodd" d="M51.7306 3.30648C55.5155 7.09139 55.5155 13.2279 51.7306 17.0129L44.449 24.2944C40.6641 28.0793 34.5276 28.0793 30.7427 24.2944C26.9578 20.5095 26.9578 14.3729 30.7427 10.588L38.0242 3.30648C41.8091 -0.478427 47.9456 -0.478428 51.7306 3.30648Z" fill="url(#paint2_linear_1_32)"/>
</g>
<g style="mix-blend-mode:multiply">
<path fill-rule="evenodd" clip-rule="evenodd" d="M41.5 16.0001C36.2533 16.0001 32 20.2534 32 25.5001C32 30.7468 36.2533 35.0001 41.5 35.0001H51.5C56.7467 35.0001 61 30.7468 61 25.5001C61 20.2534 56.7467 16.0001 51.5 16.0001H41.5Z" fill="url(#paint3_linear_1_32)"/>
</g>
<g style="mix-blend-mode:multiply">
<path fill-rule="evenodd" clip-rule="evenodd" d="M51.7306 47.9183C55.5155 44.1333 55.5155 37.9968 51.7306 34.2119L44.449 26.9304C40.6641 23.1455 34.5276 23.1455 30.7427 26.9304C26.9578 30.7153 26.9578 36.8518 30.7427 40.6367L38.0242 47.9182C41.8091 51.7032 47.9456 51.7032 51.7306 47.9183Z" fill="url(#paint4_linear_1_32)"/>
</g>
<g style="mix-blend-mode:multiply">
<path fill-rule="evenodd" clip-rule="evenodd" d="M29.5 27.0001C24.2533 27.0001 20 31.2534 20 36.5001V46.5001C20 51.7468 24.2533 56.0001 29.5 56.0001C34.7467 56.0001 39 51.7468 39 46.5001V36.5001C39 31.2534 34.7467 27.0001 29.5 27.0001Z" fill="url(#paint5_linear_1_32)"/>
</g>
<g style="mix-blend-mode:multiply">
<path fill-rule="evenodd" clip-rule="evenodd" d="M7.11857 47.9183C3.33366 44.1333 3.33366 37.9968 7.11857 34.2119L14.4001 26.9304C18.185 23.1455 24.3215 23.1455 28.1065 26.9304C31.8914 30.7153 31.8914 36.8518 28.1065 40.6367L20.8249 47.9182C17.04 51.7032 10.9035 51.7032 7.11857 47.9183Z" fill="url(#paint6_linear_1_32)"/>
</g>
<g style="mix-blend-mode:multiply">
<path fill-rule="evenodd" clip-rule="evenodd" d="M7.5 16.0001C2.25329 16.0001 -2 20.2534 -2 25.5001C-2 30.7468 2.25329 35.0001 7.5 35.0001H18.5C23.7467 35.0001 28 30.7468 28 25.5001C28 20.2534 23.7467 16.0001 18.5 16.0001H7.5Z" fill="url(#paint7_linear_1_32)"/>
</g>
</g>
<defs>
<linearGradient id="paint0_linear_1_32" x1="0.265381" y1="10.1597" x2="21.2533" y2="31.1476" gradientUnits="userSpaceOnUse">
<stop stop-color="#F26568"/>
<stop offset="1" stop-color="#F37D4F"/>
</linearGradient>
<linearGradient id="paint1_linear_1_32" x1="20" y1="-5.99994" x2="20" y2="23.0001" gradientUnits="userSpaceOnUse">
<stop stop-color="#F89B35"/>
<stop offset="1" stop-color="#FEC229"/>
</linearGradient>
<linearGradient id="paint2_linear_1_32" x1="58.5837" y1="10.1597" x2="37.5959" y2="31.1476" gradientUnits="userSpaceOnUse">
<stop stop-color="#FFE836"/>
<stop offset="1" stop-color="#DFDD31"/>
</linearGradient>
<linearGradient id="paint3_linear_1_32" x1="61" y1="16.0001" x2="32" y2="16.0001" gradientUnits="userSpaceOnUse">
<stop stop-color="#C7DB43"/>
<stop offset="1" stop-color="#96CC6A"/>
</linearGradient>
<linearGradient id="paint4_linear_1_32" x1="58.5837" y1="41.0651" x2="37.5959" y2="20.0772" gradientUnits="userSpaceOnUse">
<stop stop-color="#6AC385"/>
<stop offset="1" stop-color="#6ABABC"/>
</linearGradient>
<linearGradient id="paint5_linear_1_32" x1="20" y1="27.0001" x2="20" y2="56.0001" gradientUnits="userSpaceOnUse">
<stop stop-color="#87A1D3"/>
<stop offset="1" stop-color="#69B7E5"/>
</linearGradient>
<linearGradient id="paint6_linear_1_32" x1="0.265381" y1="41.0651" x2="21.2533" y2="20.0772" gradientUnits="userSpaceOnUse">
<stop stop-color="#968EC4"/>
<stop offset="1" stop-color="#B58EC1"/>
</linearGradient>
<linearGradient id="paint7_linear_1_32" x1="28" y1="16.0001" x2="-2" y2="16.0001" gradientUnits="userSpaceOnUse">
<stop stop-color="#E2768D"/>
<stop offset="1" stop-color="#CD8CBD"/>
</linearGradient>
</defs>
</svg>
